# xmcd
#
# Track frame offsets: 
#        150
#        10733
#        43844
#        88049
#        119973
#        144299
#        167669
#        190667
#        237115
#
# Disc length: 3561 seconds
#
# Revision: 2
# Processed by: cddbd v1.5.2PL0 Copyright (c) Steve Scherf et al.
# Submitted via: ExactAudioCopyFreeDBPlugin 1.0
#
DISCID=720de709
DTITLE=Jimi Hendrix - Live At Woodstock [disc 1]
DYEAR=1969
DGENRE=Blues
TTITLE0=Introduction
TTITLE1=Message To Love
TTITLE2=Hear My Train A Comin'
TTITLE3=Spanish Castle Magic
TTITLE4=Red House
TTITLE5=Lover Man
TTITLE6=Foxey Lady
TTITLE7=Jam Back At The House
TTITLE8=Daten-CD
EXTD=
EXTT0=
EXTT1=
EXTT2=
EXTT3=
EXTT4=
EXTT5=
EXTT6=
EXTT7=
EXTT8=
PLAYORDER=
